<svg width="1474" height="212" viewBox="0 0 1474 212" fill="none" xmlns="http://www.w3.org/2000/svg">
<g clip-path="url(#clip0)">
<rect width="1474" height="212" fill="white"/>
<rect x="31" y="31" width="282" height="149" fill="#E0EFFF" stroke="#007BFF" stroke-width="4"/>
<rect x="597" y="31" width="282" height="149" fill="#E0EFFF" stroke="#007BFF" stroke-width="4"/>
<rect x="1163" y="31" width="282" height="149" fill="#E0EFFF" stroke="#007BFF" stroke-width="4"/>
<path d="M313.5 105L571 105" stroke="#007BFF" stroke-width="4" stroke-linecap="round" stroke-linejoin="round"/>
<path d="M595.302 105C583.902 109.2 569.802 116.4 561.102 124L568.002 105L561.102 86C569.802 93.6 583.902 100.8 595.302 105Z" fill="#007BFF"/>
<path d="M880 105L1137.5 105" stroke="#007BFF" stroke-width="4" stroke-linecap="round" stroke-linejoin="round"/>
<path d="M1161.8 105C1150.4 109.2 1136.3 116.4 1127.6 124L1134.5 105L1127.6 86C1136.3 93.6 1150.4 100.8 1161.8 105Z" fill="#007BFF"/>
<path d="M352.787 66.768C352.254 69.064 350.532 70.499 347.58 70.499C342.947 70.499 341.02 66.727 341.02 62.586C341.02 58.486 342.906 54.837 347.58 54.837C350.409 54.837 352.008 56.231 352.664 58.322H356.149C355.452 54.509 352.5 51.803 347.58 51.803C341.143 51.803 337.535 56.436 337.535 62.668C337.535 68.777 341.143 73.533 347.58 73.533C352.377 73.533 355.493 70.827 356.272 66.768H352.787ZM370.365 51.803C363.887 51.803 360.197 56.559 360.197 62.668C360.197 68.777 363.887 73.533 370.365 73.533C376.802 73.533 380.533 68.777 380.533 62.668C380.533 56.559 376.802 51.803 370.365 51.803ZM370.365 70.499C365.773 70.499 363.682 66.727 363.682 62.668C363.682 58.609 365.773 54.837 370.365 54.837C374.916 54.837 377.048 58.609 377.048 62.668C377.048 66.727 374.916 70.499 370.365 70.499ZM404.34 73V59.88C404.34 54.919 401.552 51.803 396.468 51.803C393.68 51.803 391.384 52.951 390.236 54.55H389.334V52.336H385.972V73H389.457V61.807C389.457 58.158 391.917 54.919 395.607 54.919C399.092 54.919 400.855 56.805 400.855 60.618V73H404.34ZM415.513 52.336V46.104H412.028V52.336H408.461V55.37H412.028V67.219C412.028 71.606 414.652 73 419.121 73H420.72V69.884H419.203C416.415 69.884 415.513 68.818 415.513 66.727V55.37H420.72V52.336H415.513ZM439.612 73H442.892V58.937C442.892 54.304 439.571 51.803 434.364 51.803C429.731 51.803 426.451 54.017 426.164 57.83H429.649C429.813 56.026 431.371 54.837 434.446 54.837C438.054 54.837 439.489 56.641 439.489 59.142V59.962H432.765C427.025 59.962 424.852 63.488 424.852 66.809C424.852 70.335 427.517 73.533 432.273 73.533C435.225 73.533 437.439 72.426 438.71 70.827H439.612V73ZM433.134 70.499C430.059 70.499 428.337 69.023 428.337 66.686C428.337 64.226 429.895 62.75 433.298 62.75H439.489V64.636C439.489 67.916 436.578 70.499 433.134 70.499ZM452.964 46.965V43.193H449.274V46.965H452.964ZM452.841 52.336H449.356V73H452.841V52.336ZM478.052 73V59.88C478.052 54.919 475.264 51.803 470.18 51.803C467.392 51.803 465.096 52.951 463.948 54.55H463.046V52.336H459.684V73H463.169V61.807C463.169 58.158 465.629 54.919 469.319 54.919C472.804 54.919 474.567 56.805 474.567 60.618V73H478.052ZM490.168 60.126C488.077 59.798 487.052 59.183 487.052 57.584C487.052 55.821 488.856 54.837 491.521 54.837C494.104 54.837 496.072 55.739 496.359 57.707H499.844C499.393 54.099 496.564 51.803 491.685 51.803C486.109 51.803 483.526 54.468 483.526 57.912C483.526 61.028 485.535 62.586 488.487 63.119L493.12 63.898C495.744 64.349 496.892 65.333 496.892 67.137C496.892 69.392 494.842 70.499 491.726 70.499C488.61 70.499 486.56 69.351 486.232 67.014H482.706C483.157 70.95 486.027 73.533 491.89 73.533C497.466 73.533 500.377 70.458 500.377 67.055C500.377 63.283 498.081 61.438 494.473 60.823L492.136 60.454L490.168 60.126ZM515.957 73H532.644V69.802H526.371V44.3H521.902L515.916 48.359V52.131L521.943 48.072H522.763V69.802H515.957V73ZM558.073 59.839H549.176V62.832H558.073V71.729H561.066V62.832H570.004V59.839H561.066V50.942H558.073V59.839Z" fill="#082E51"/>
<path d="M135.732 102.66C138.592 101.12 140.022 98.205 140.022 94.685C140.022 89.295 135.787 84.73 127.482 84.73H110.377V124H127.922C136.887 124 141.232 119.215 141.232 112.945C141.232 108.93 139.032 105.41 135.732 103.87V102.66ZM115.327 89.13H127.262C131.222 89.13 135.017 90.67 135.017 95.125C135.017 99.965 131.717 101.395 127.372 101.395H115.327V89.13ZM115.327 119.6V105.74H127.647C132.267 105.74 136.227 107.5 136.227 112.56C136.227 118.005 132.047 119.6 127.592 119.6H115.327ZM148.006 96.28V113.88C148.006 120.535 151.746 124.715 158.566 124.715C162.306 124.715 165.386 123.175 166.926 121.03H168.136V124H172.646V96.28H167.971V111.295C167.971 116.3 164.616 120.535 159.721 120.535C155.046 120.535 152.681 118.005 152.681 112.89V96.28H148.006ZM186.589 89.075V84.015H181.639V89.075H186.589ZM186.424 96.28H181.749V124H186.424V96.28ZM195.604 84.015V124H200.279V84.015H195.604ZM229.431 84.015V99.25H228.221C226.681 97.27 224.151 95.565 219.751 95.565C212.106 95.565 207.596 101.78 207.596 110.14C207.596 118.335 212.106 124.715 219.751 124.715C224.151 124.715 226.846 122.955 228.386 121.03H229.596V124H234.106V84.015H229.431ZM220.796 120.645C215.241 120.645 212.271 116.3 212.271 110.14C212.271 103.98 215.241 99.635 220.796 99.635C226.956 99.635 229.486 104.695 229.486 110.14C229.486 115.585 226.956 120.645 220.796 120.645Z" fill="#082E51"/>
<path d="M647.232 84.73V124H652.182V108.27H663.842C672.422 108.27 677.152 103.87 677.152 96.445C677.152 89.13 672.422 84.73 663.842 84.73H647.232ZM652.182 103.87V89.13H663.017C669.727 89.13 672.147 91.935 672.147 96.5C672.147 101.065 669.727 103.87 663.017 103.87H652.182ZM699.906 96.28H697.816C693.801 96.28 691.161 97.875 689.786 99.58H688.576V96.28H684.066V124H688.741V110.14C688.741 104.035 692.096 100.68 697.596 100.68H699.906V96.28ZM717.969 95.565C709.279 95.565 704.329 101.945 704.329 110.14C704.329 118.335 709.279 124.715 717.969 124.715C726.604 124.715 731.609 118.335 731.609 110.14C731.609 101.945 726.604 95.565 717.969 95.565ZM717.969 120.645C711.809 120.645 709.004 115.585 709.004 110.14C709.004 104.695 711.809 99.635 717.969 99.635C724.074 99.635 726.934 104.695 726.934 110.14C726.934 115.585 724.074 120.645 717.969 120.645ZM744.46 89.075V84.015H739.51V89.075H744.46ZM735.44 135C741.16 135 744.35 131.59 744.35 125.485V96.28H739.675V125.32C739.675 128.895 738.3 130.93 734.505 130.93H731.975V135H735.44ZM777.496 108.49C777.331 101.67 773.371 95.565 765.121 95.565C756.706 95.565 751.756 101.34 751.756 109.865C751.756 118.39 756.596 124.715 765.231 124.715C772.106 124.715 776.121 121.085 777.001 116.355H772.271C771.446 118.995 769.136 120.645 765.231 120.645C759.511 120.645 756.541 116.685 756.376 110.085H777.496V108.49ZM765.011 99.635C769.686 99.635 772.381 102.66 772.656 106.18H756.651C757.256 102.66 760.006 99.635 765.011 99.635ZM803.529 115.64C802.814 118.72 800.504 120.645 796.544 120.645C790.329 120.645 787.744 115.585 787.744 110.03C787.744 104.53 790.274 99.635 796.544 99.635C800.339 99.635 802.484 101.505 803.364 104.31H808.039C807.104 99.195 803.144 95.565 796.544 95.565C787.909 95.565 783.069 101.78 783.069 110.14C783.069 118.335 787.909 124.715 796.544 124.715C802.979 124.715 807.159 121.085 808.204 115.64H803.529ZM821.61 96.28V87.92H816.935V96.28H812.15V100.35H816.935V116.245C816.935 122.13 820.455 124 826.45 124H828.595V119.82H826.56C822.82 119.82 821.61 118.39 821.61 115.585V100.35H828.595V96.28H821.61Z" fill="#082E51"/>
<path d="M1277.83 84.73H1247.03V89.13H1260.01V124H1264.96V89.13H1277.83V84.73ZM1295.86 124H1300.26V105.135C1300.26 98.92 1295.81 95.565 1288.82 95.565C1282.61 95.565 1278.21 98.535 1277.82 103.65H1282.5C1282.72 101.23 1284.81 99.635 1288.93 99.635C1293.77 99.635 1295.7 102.055 1295.7 105.41V106.51H1286.68C1278.98 106.51 1276.06 111.24 1276.06 115.695C1276.06 120.425 1279.64 124.715 1286.02 124.715C1289.98 124.715 1292.95 123.23 1294.65 121.085H1295.86V124ZM1287.17 120.645C1283.05 120.645 1280.74 118.665 1280.74 115.53C1280.74 112.23 1282.83 110.25 1287.39 110.25H1295.7V112.78C1295.7 117.18 1291.79 120.645 1287.17 120.645ZM1316.52 106.73C1313.72 106.29 1312.34 105.465 1312.34 103.32C1312.34 100.955 1314.76 99.635 1318.34 99.635C1321.8 99.635 1324.44 100.845 1324.83 103.485H1329.5C1328.9 98.645 1325.1 95.565 1318.56 95.565C1311.08 95.565 1307.61 99.14 1307.61 103.76C1307.61 107.94 1310.31 110.03 1314.27 110.745L1320.48 111.79C1324 112.395 1325.54 113.715 1325.54 116.135C1325.54 119.16 1322.79 120.645 1318.61 120.645C1314.43 120.645 1311.68 119.105 1311.24 115.97H1306.51C1307.12 121.25 1310.97 124.715 1318.83 124.715C1326.31 124.715 1330.22 120.59 1330.22 116.025C1330.22 110.965 1327.14 108.49 1322.3 107.665L1319.16 107.17L1316.52 106.73ZM1362.26 124L1352.42 104.805L1360.39 96.28H1354.84L1341.75 110.195V84.015H1337.07V124H1341.75V115.97L1348.13 108.93H1349.34L1357.26 124H1362.26Z" fill="#082E51"/>
<path d="M918.787 66.768C918.254 69.064 916.532 70.499 913.58 70.499C908.947 70.499 907.02 66.727 907.02 62.586C907.02 58.486 908.906 54.837 913.58 54.837C916.409 54.837 918.008 56.231 918.664 58.322H922.149C921.452 54.509 918.5 51.803 913.58 51.803C907.143 51.803 903.535 56.436 903.535 62.668C903.535 68.777 907.143 73.533 913.58 73.533C918.377 73.533 921.493 70.827 922.272 66.768H918.787ZM936.365 51.803C929.887 51.803 926.197 56.559 926.197 62.668C926.197 68.777 929.887 73.533 936.365 73.533C942.802 73.533 946.533 68.777 946.533 62.668C946.533 56.559 942.802 51.803 936.365 51.803ZM936.365 70.499C931.773 70.499 929.682 66.727 929.682 62.668C929.682 58.609 931.773 54.837 936.365 54.837C940.916 54.837 943.048 58.609 943.048 62.668C943.048 66.727 940.916 70.499 936.365 70.499ZM970.34 73V59.88C970.34 54.919 967.552 51.803 962.468 51.803C959.68 51.803 957.384 52.951 956.236 54.55H955.334V52.336H951.972V73H955.457V61.807C955.457 58.158 957.917 54.919 961.607 54.919C965.092 54.919 966.855 56.805 966.855 60.618V73H970.34ZM981.513 52.336V46.104H978.028V52.336H974.461V55.37H978.028V67.219C978.028 71.606 980.652 73 985.121 73H986.72V69.884H985.203C982.415 69.884 981.513 68.818 981.513 66.727V55.37H986.72V52.336H981.513ZM1005.61 73H1008.89V58.937C1008.89 54.304 1005.57 51.803 1000.36 51.803C995.731 51.803 992.451 54.017 992.164 57.83H995.649C995.813 56.026 997.371 54.837 1000.45 54.837C1004.05 54.837 1005.49 56.641 1005.49 59.142V59.962H998.765C993.025 59.962 990.852 63.488 990.852 66.809C990.852 70.335 993.517 73.533 998.273 73.533C1001.23 73.533 1003.44 72.426 1004.71 70.827H1005.61V73ZM999.134 70.499C996.059 70.499 994.337 69.023 994.337 66.686C994.337 64.226 995.895 62.75 999.298 62.75H1005.49V64.636C1005.49 67.916 1002.58 70.499 999.134 70.499ZM1018.96 46.965V43.193H1015.27V46.965H1018.96ZM1018.84 52.336H1015.36V73H1018.84V52.336ZM1044.05 73V59.88C1044.05 54.919 1041.26 51.803 1036.18 51.803C1033.39 51.803 1031.1 52.951 1029.95 54.55H1029.05V52.336H1025.68V73H1029.17V61.807C1029.17 58.158 1031.63 54.919 1035.32 54.919C1038.8 54.919 1040.57 56.805 1040.57 60.618V73H1044.05ZM1056.17 60.126C1054.08 59.798 1053.05 59.183 1053.05 57.584C1053.05 55.821 1054.86 54.837 1057.52 54.837C1060.1 54.837 1062.07 55.739 1062.36 57.707H1065.84C1065.39 54.099 1062.56 51.803 1057.68 51.803C1052.11 51.803 1049.53 54.468 1049.53 57.912C1049.53 61.028 1051.53 62.586 1054.49 63.119L1059.12 63.898C1061.74 64.349 1062.89 65.333 1062.89 67.137C1062.89 69.392 1060.84 70.499 1057.73 70.499C1054.61 70.499 1052.56 69.351 1052.23 67.014H1048.71C1049.16 70.95 1052.03 73.533 1057.89 73.533C1063.47 73.533 1066.38 70.458 1066.38 67.055C1066.38 63.283 1064.08 61.438 1060.47 60.823L1058.14 60.454L1056.17 60.126ZM1081.96 73H1098.64V69.802H1092.37V44.3H1087.9L1081.92 48.359V52.131L1087.94 48.072H1088.76V69.802H1081.96V73ZM1124.07 59.839H1115.18V62.832H1124.07V71.729H1127.07V62.832H1136V59.839H1127.07V50.942H1124.07V59.839Z" fill="#082E51"/>
</g>
<defs>
<clipPath id="clip0">
<rect width="1474" height="212" fill="white"/>
</clipPath>
</defs>
</svg>
